<svg id="组_126" data-name="组 126" xmlns="http://www.w3.org/2000/svg" xmlns:xlink="http://www.w3.org/1999/xlink" width="64.075" height="61.62" viewBox="0 0 64.075 61.62">
  <defs>
    <clipPath id="clip-path">
      <rect id="矩形_29" data-name="矩形 29" width="64.075" height="61.62" transform="translate(0 0)" fill="none"/>
    </clipPath>
  </defs>
  <g id="组_27" data-name="组 27" transform="translate(0 0)" clip-path="url(#clip-path)">
    <path id="路径_932" data-name="路径 932" d="M90.869,0a9.3,9.3,0,0,0-2.13.427C78.758,6.008,69.415,12.4,62.752,21.951c-4.863,6.969-6.64,14.5-3.367,22.73a2.428,2.428,0,0,0,2.457,1.81c8.918.453,27.609,1.981,28.665,1.9-11.964-16-7.279-32.262.362-48.392" transform="translate(-54.953 0)" fill="#998975"/>
    <path id="路径_933" data-name="路径 933" d="M58.877,112.434c1.983.031,3.051-.517,3.884-2.343,2.114-4.637,2.055-4.651-3-5.069-7.261-.6-14.5-1.486-21.748-2.23-7.009-.719-14.021-1.411-21.031-2.12-4.189-.423-8.377-.865-12.567-1.282A26.18,26.18,0,0,0,1.5,99.224c-1.5.019-1.882.748-1.132,2.041,1.787,3.08,3.5,6.211,5.447,9.185a3.6,3.6,0,0,0,2.641,1.178c8.605.087,17.212.052,25.819.052,0,.234,16.4.627,24.6.755" transform="translate(-0.001 -50.816)" fill="#998975"/>
    <path id="路径_934" data-name="路径 934" d="M19.564,15.518c-7.367,13.425-4.44,28.549,1.9,41.3l17.682,1.994C28.784,46.019,24.881,32.846,20.132,15.37l-.568.148" transform="translate(17.503 -7.872)" fill="#998975"/>
  </g>
</svg>
