<svg xmlns="http://www.w3.org/2000/svg" xmlns:xlink="http://www.w3.org/1999/xlink" width="556" height="595" viewBox="0 0 556 595">
  <defs>
    <clipPath id="clip-path">
      <rect id="矩形_128" data-name="矩形 128" width="556" height="595" transform="translate(0 485)" fill="#fff" stroke="#707070" stroke-width="1"/>
    </clipPath>
    <clipPath id="clip-path-2">
      <rect id="矩形_122" data-name="矩形 122" width="62" height="23" fill="none"/>
    </clipPath>
    <clipPath id="clip-path-4">
      <rect id="矩形_124" data-name="矩形 124" width="110" height="41" fill="none"/>
    </clipPath>
    <clipPath id="clip-path-5">
      <rect id="矩形_125" data-name="矩形 125" width="173" height="45" transform="translate(0 -0.313)" fill="none"/>
    </clipPath>
    <clipPath id="clip-path-6">
      <rect id="矩形_126" data-name="矩形 126" width="87" height="40" transform="translate(0 -0.183)" fill="none"/>
    </clipPath>
    <clipPath id="clip-path-7">
      <rect id="矩形_127" data-name="矩形 127" width="77" height="35" transform="translate(0 -0.077)" fill="none"/>
    </clipPath>
  </defs>
  <g id="波浪插圖" transform="translate(0 -485)" clip-path="url(#clip-path)">
    <g id="组_129" data-name="组 129" transform="translate(21 906)">
      <g id="组_128" data-name="组 128" clip-path="url(#clip-path-2)">
        <path id="路径_1017" data-name="路径 1017" d="M2,8.412a10.288,10.288,0,0,0,6.892-.884c2.263-1.1,4.255-2.746,6.77-2.819,4.506-.2,5.545,1.877,8.677,4.179a14.547,14.547,0,0,0,11.122,2.266,14.477,14.477,0,0,0,7.053-3.671c1.474-1.24,2.148-1.927,3.778-2.432a9.333,9.333,0,0,1,4.65-.1,13.518,13.518,0,0,1,3.295,1.528c2.609,1.605,5.613,2.732,8.846,1.93-4.325-.931-5.187-3.07-7.95-5.574-3.2-2.87-8.7-3.607-12.964-2.012a18.1,18.1,0,0,0-4.33,2.5c-2.212,1.711-3.933,2.38-6.7,1.972-1.611-.294-2.321-.85-3.9-1.966A14.149,14.149,0,0,0,17.271.044,12.143,12.143,0,0,0,8.431,4.335,16.512,16.512,0,0,1,5.75,6.876,10.766,10.766,0,0,1,2,8.412" transform="translate(-1.281 12.007)" fill="#00a99d"/>
        <path id="路径_1018" data-name="路径 1018" d="M0,48.412a10.288,10.288,0,0,0,6.892-.884c2.263-1.1,4.255-2.746,6.77-2.819,4.506-.2,5.545,1.877,8.677,4.179a14.48,14.48,0,0,0,18.175-1.405c1.474-1.24,2.148-1.927,3.778-2.432a9.333,9.333,0,0,1,4.65-.1,13.518,13.518,0,0,1,3.295,1.528c2.609,1.605,5.613,2.732,8.846,1.93-4.325-.931-5.187-3.07-7.95-5.574-3.2-2.87-8.7-3.607-12.964-2.012a18.1,18.1,0,0,0-4.33,2.5c-2.212,1.711-3.933,2.38-6.7,1.972-1.611-.294-2.321-.85-3.9-1.966a14.149,14.149,0,0,0-9.968-3.289,12.143,12.143,0,0,0-8.839,4.292A16.512,16.512,0,0,1,3.75,46.876,10.766,10.766,0,0,1,0,48.412" transform="translate(0 -40.019)" fill="#00a99d"/>
      </g>
    </g>
    <g id="组_131" data-name="组 131" transform="translate(126 615)">
      <g id="组_130" data-name="组 130" clip-path="url(#clip-path-2)">
        <path id="路径_1019" data-name="路径 1019" d="M2,8.412a10.288,10.288,0,0,0,6.892-.884c2.263-1.1,4.255-2.746,6.77-2.819,4.506-.2,5.545,1.877,8.677,4.179a14.547,14.547,0,0,0,11.122,2.266,14.477,14.477,0,0,0,7.053-3.671c1.474-1.24,2.148-1.927,3.778-2.432a9.333,9.333,0,0,1,4.65-.1,13.518,13.518,0,0,1,3.295,1.528c2.609,1.605,5.613,2.732,8.846,1.93-4.325-.931-5.187-3.07-7.95-5.574-3.2-2.87-8.7-3.607-12.964-2.012a18.1,18.1,0,0,0-4.33,2.5c-2.212,1.711-3.933,2.38-6.7,1.972-1.611-.294-2.321-.85-3.9-1.966A14.149,14.149,0,0,0,17.271.044,12.143,12.143,0,0,0,8.431,4.335,16.512,16.512,0,0,1,5.75,6.876,10.766,10.766,0,0,1,2,8.412" transform="translate(-1.281 12.007)" fill="#00a99d"/>
        <path id="路径_1020" data-name="路径 1020" d="M0,48.412a10.288,10.288,0,0,0,6.892-.884c2.263-1.1,4.255-2.746,6.77-2.819,4.506-.2,5.545,1.877,8.677,4.179a14.48,14.48,0,0,0,18.175-1.405c1.474-1.24,2.148-1.927,3.778-2.432a9.333,9.333,0,0,1,4.65-.1,13.518,13.518,0,0,1,3.295,1.528c2.609,1.605,5.613,2.732,8.846,1.93-4.325-.931-5.187-3.07-7.95-5.574-3.2-2.87-8.7-3.607-12.964-2.012a18.1,18.1,0,0,0-4.33,2.5c-2.212,1.711-3.933,2.38-6.7,1.972-1.611-.294-2.321-.85-3.9-1.966a14.149,14.149,0,0,0-9.968-3.289,12.143,12.143,0,0,0-8.839,4.292A16.512,16.512,0,0,1,3.75,46.876,10.766,10.766,0,0,1,0,48.412" transform="translate(0 -40.019)" fill="#00a99d"/>
      </g>
    </g>
    <g id="组_133" data-name="组 133" transform="translate(344 947)">
      <g id="组_132" data-name="组 132" transform="translate(0 0)" clip-path="url(#clip-path-4)">
        <path id="路径_1021" data-name="路径 1021" d="M2,14.938a18.269,18.269,0,0,0,12.239-1.569c4.019-1.946,7.557-4.876,12.023-5.005,8-.361,9.847,3.332,15.408,7.421,5.231,3.94,12.9,5.323,19.75,4.024a25.709,25.709,0,0,0,12.525-6.519c2.618-2.2,3.814-3.422,6.709-4.318A16.574,16.574,0,0,1,88.911,8.8a24.006,24.006,0,0,1,5.851,2.714c4.634,2.851,9.967,4.852,15.708,3.427-7.681-1.653-9.212-5.451-14.118-9.9C90.664-.057,80.9-1.366,73.331,1.467a32.144,32.144,0,0,0-7.689,4.441c-3.927,3.038-6.984,4.227-11.894,3.5-2.861-.523-4.123-1.51-6.93-3.49-4.951-3.835-10.7-6.36-17.7-5.84A21.564,21.564,0,0,0,13.421,7.7,29.322,29.322,0,0,1,8.659,12.21,19.119,19.119,0,0,1,2,14.938" transform="translate(-0.724 21.321)" fill="#00a99d"/>
        <path id="路径_1022" data-name="路径 1022" d="M0,54.938a18.269,18.269,0,0,0,12.239-1.569c4.019-1.946,7.557-4.876,12.023-5.005,8-.361,9.847,3.332,15.408,7.421,5.231,3.94,12.9,5.323,19.75,4.024a25.709,25.709,0,0,0,12.525-6.519c2.618-2.2,3.814-3.422,6.709-4.318a16.574,16.574,0,0,1,8.257-.174,24.005,24.005,0,0,1,5.851,2.714c4.634,2.851,9.967,4.852,15.708,3.427-7.681-1.653-9.212-5.451-14.118-9.9-5.689-5.1-15.449-6.406-23.021-3.574a32.144,32.144,0,0,0-7.689,4.441c-3.927,3.038-6.984,4.227-11.894,3.5-2.861-.523-4.123-1.51-6.93-3.49-4.951-3.835-10.7-6.36-17.7-5.84a21.564,21.564,0,0,0-15.7,7.621A29.322,29.322,0,0,1,6.659,52.21,19.119,19.119,0,0,1,0,54.938" transform="translate(0 -40.034)" fill="#00a99d"/>
      </g>
    </g>
    <g id="组_135" data-name="组 135" transform="translate(440 783.312)">
      <g id="组_134" data-name="组 134" transform="translate(0 0)" clip-path="url(#clip-path-5)">
        <path id="路径_1023" data-name="路径 1023" d="M0,46.946a16.583,16.583,0,0,0,12.986-1.99C17.25,42.487,21,38.772,25.744,38.608c8.491-.458,10.449,4.226,16.349,9.411a23.887,23.887,0,0,0,20.956,5.1c5.18-1.03,9.894-4.581,13.29-8.267,2.778-2.793,4.047-4.34,7.119-5.476a14.818,14.818,0,0,1,8.762-.221A23.77,23.77,0,0,1,98.429,42.6c4.917,3.615,10.576,6.154,16.668,4.347-8.15-2.1-9.774-6.913-14.98-12.553-6.037-6.464-16.393-8.124-24.428-4.532a33.29,33.29,0,0,0-8.159,5.632c-4.167,3.852-7.41,5.361-12.621,4.44-3.036-.663-4.374-1.914-7.353-4.426C42.3,30.643,36.2,27.441,28.774,28.1c-7.085.416-12.591,4.077-16.656,9.665a34.318,34.318,0,0,1-5.052,5.722A18.631,18.631,0,0,1,0,46.946" transform="translate(0 -9.043)" fill="#fff"/>
        <path id="路径_1024" data-name="路径 1024" d="M85,18.946a16.583,16.583,0,0,0,12.986-1.99c4.264-2.468,8.018-6.183,12.758-6.348,8.491-.458,10.449,4.226,16.349,9.411a23.887,23.887,0,0,0,20.956,5.1c5.18-1.03,9.894-4.581,13.29-8.267,2.778-2.793,4.047-4.34,7.119-5.476a14.818,14.818,0,0,1,8.762-.221,23.77,23.77,0,0,1,6.208,3.441c4.917,3.615,10.576,6.154,16.668,4.347-8.15-2.1-9.774-6.913-14.98-12.553C179.08-.071,168.724-1.731,160.689,1.86a33.29,33.29,0,0,0-8.159,5.632c-4.167,3.852-7.41,5.361-12.621,4.44-3.036-.663-4.374-1.915-7.353-4.426C127.3,2.643,121.2-.559,113.774.1c-7.085.416-12.591,4.077-16.656,9.665a34.318,34.318,0,0,1-5.052,5.722A18.631,18.631,0,0,1,85,18.946" transform="translate(-27.451 0)" fill="#fff"/>
      </g>
    </g>
    <g id="组_137" data-name="组 137" transform="translate(70 1059.607)">
      <g id="组_136" data-name="组 136" transform="translate(0 -0.425)" clip-path="url(#clip-path-6)">
        <path id="路径_1025" data-name="路径 1025" d="M2,54.073a12.318,12.318,0,0,0,9.646-1.478C14.814,50.761,17.6,48,21.123,47.879c6.307-.34,7.761,3.139,12.144,6.99a17.743,17.743,0,0,0,15.566,3.79c3.848-.765,7.349-3.4,9.872-6.141,2.063-2.074,3.006-3.224,5.288-4.068a11.007,11.007,0,0,1,6.508-.164,17.656,17.656,0,0,1,4.612,2.556c3.652,2.686,7.856,4.571,12.381,3.229-6.054-1.557-7.26-5.135-11.127-9.324-4.484-4.8-12.177-6.034-18.145-3.366a24.728,24.728,0,0,0-6.061,4.184c-3.1,2.862-5.5,3.982-9.375,3.3-2.255-.492-3.249-1.422-5.462-3.288-3.9-3.612-8.434-5.991-13.951-5.5C18.111,40.383,14.021,43.1,11,47.253A25.491,25.491,0,0,1,7.249,51.5,13.839,13.839,0,0,1,2,54.073" transform="translate(-0.994 -19.3)" fill="#fff"/>
        <path id="路径_1026" data-name="路径 1026" d="M0,14.073a12.318,12.318,0,0,0,9.646-1.478C12.814,10.761,15.6,8,19.123,7.879c6.307-.34,7.761,3.139,12.144,6.99a17.743,17.743,0,0,0,15.566,3.79c3.848-.765,7.349-3.4,9.872-6.141,2.063-2.074,3.006-3.224,5.288-4.068A11.007,11.007,0,0,1,68.5,8.288a17.656,17.656,0,0,1,4.612,2.556c3.652,2.686,7.856,4.571,12.381,3.229-6.054-1.557-7.26-5.135-11.127-9.324C69.883-.053,62.19-1.286,56.222,1.382a24.728,24.728,0,0,0-6.061,4.184c-3.1,2.862-5.5,3.982-9.375,3.3-2.255-.492-3.249-1.422-5.462-3.288-3.9-3.612-8.434-5.991-13.951-5.5C16.111.383,12.021,3.1,9,7.253A25.491,25.491,0,0,1,5.249,11.5,13.839,13.839,0,0,1,0,14.073" transform="translate(0 0.584)" fill="#fff"/>
      </g>
    </g>
    <g id="组_139" data-name="组 139" transform="translate(-25 505.077)">
      <g id="组_138" data-name="组 138" transform="translate(0 0)" clip-path="url(#clip-path-7)">
        <path id="路径_1027" data-name="路径 1027" d="M2,52.527a10.965,10.965,0,0,0,8.587-1.316c2.819-1.632,5.3-4.089,8.436-4.2,5.614-.3,6.909,2.794,10.81,6.223A15.8,15.8,0,0,0,43.69,56.611c3.425-.681,6.542-3.029,8.788-5.467,1.837-1.847,2.676-2.87,4.707-3.621a9.8,9.8,0,0,1,5.793-.146,15.717,15.717,0,0,1,4.105,2.276c3.251,2.391,6.993,4.069,11.021,2.874-5.389-1.386-6.463-4.571-9.905-8.3-3.991-4.274-10.84-5.372-16.152-3a22.012,22.012,0,0,0-5.395,3.724C43.9,47.5,41.753,48.5,38.307,47.89c-2.007-.438-2.892-1.266-4.862-2.927-3.474-3.216-7.508-5.333-12.419-4.9a14.39,14.39,0,0,0-11.013,6.391A22.692,22.692,0,0,1,6.672,50.24,12.319,12.319,0,0,1,2,52.527" transform="translate(-1.105 -22.093)" fill="#fff"/>
        <path id="路径_1028" data-name="路径 1028" d="M0,12.527a10.965,10.965,0,0,0,8.587-1.316c2.819-1.632,5.3-4.089,8.436-4.2,5.614-.3,6.909,2.794,10.81,6.223A15.8,15.8,0,0,0,41.69,16.611c3.425-.681,6.542-3.029,8.788-5.467,1.837-1.847,2.676-2.87,4.707-3.621a9.8,9.8,0,0,1,5.793-.146,15.717,15.717,0,0,1,4.105,2.276c3.251,2.391,6.993,4.069,11.021,2.874-5.389-1.386-6.463-4.571-9.905-8.3-3.991-4.274-10.84-5.372-16.152-3a22.012,22.012,0,0,0-5.395,3.724C41.9,7.5,39.753,8.5,36.307,7.89c-2.007-.438-2.892-1.266-4.862-2.927C27.972,1.748,23.937-.37,19.026.066A14.39,14.39,0,0,0,8.013,6.456,22.692,22.692,0,0,1,4.672,10.24,12.319,12.319,0,0,1,0,12.527" transform="translate(0 0)" fill="#fff"/>
      </g>
    </g>
  </g>
</svg>
