<svg xmlns="http://www.w3.org/2000/svg" width="33" height="31" viewBox="0 0 33 31">
  <g id="多边形_8" data-name="多边形 8" fill="#fff">
    <path d="M 26.22683525085449 30.35385894775391 L 16.63118934631348 27.74480056762695 L 16.5 27.70912933349609 L 16.36881065368652 27.74480056762695 L 6.77316427230835 30.35385894775391 L 6.320449829101562 20.54062080383301 L 6.314040184020996 20.4017505645752 L 6.236879825592041 20.28611946105957 L 0.7669463157653809 12.08945083618164 L 10.07409954071045 8.632369995117188 L 10.20263004302979 8.584630012512207 L 10.28882026672363 8.478010177612305 L 16.5 0.7952882051467896 L 22.71117973327637 8.477999687194824 L 22.79737091064453 8.584620475769043 L 22.92589950561523 8.632360458374023 L 32.23305511474609 12.08945083618164 L 26.76313018798828 20.28611946105957 L 26.68597030639648 20.4017505645752 L 26.6795597076416 20.54062080383301 L 26.22683525085449 30.35385894775391 Z" stroke="none"/>
    <path d="M 16.5 1.59058952331543 L 10.50525093078613 9.005599975585938 L 1.533889770507812 12.33795356750488 L 6.807100296020508 20.23983955383301 L 7.243888854980469 29.70771217346191 L 16.5 27.19096946716309 L 25.75611305236816 29.70771217346191 L 26.19290924072266 20.23983955383301 L 31.46611213684082 12.33795356750488 L 22.4947509765625 9.005590438842773 L 16.5 1.59058952331543 M 16.5 0 L 23.10000038146973 8.163650512695312 L 33 11.84095001220703 L 27.17902946472168 20.56365966796875 L 26.69755935668945 31 L 16.5 28.22727966308594 L 6.302440643310547 31 L 5.820980072021484 20.56365966796875 L 0 11.84095001220703 L 9.899999618530273 8.163660049438477 L 16.5 0 Z" stroke="none" fill="#9a9a9a"/>
  </g>
</svg>
